<?xml version="1.0" standalone="no"?>
<!DOCTYPE svg PUBLIC "-//W3C//DTD SVG 20010904//EN"
        "http://www.w3.org/TR/2001/REC-SVG-20010904/DTD/svg10.dtd">
<svg xmlns="http://www.w3.org/2000/svg"
     width="261.000000pt" height="261.000000pt" viewBox="0 0 261.000000 261.000000"
     preserveAspectRatio="xMidYMid meet">
    <rect fill="#74f7de" x="0" y="0" height="261" width="261"/>
    <g transform="translate(0.000000,261.000000) scale(0.100000,-0.100000)"
       fill="#1273a5" stroke="none">
        <path d="M0 1305 l0 -1305 1305 0 1305 0 0 1305 0 1305 -1305 0 -1305 0 0
-1305z m926 1130 c56 -9 136 -25 176 -36 101 -28 168 -34 241 -19 88 18 305
15 402 -5 87 -18 215 -73 291 -126 27 -18 84 -67 127 -108 229 -219 311 -507
242 -847 -17 -81 -17 -82 9 -175 77 -284 75 -561 -5 -737 -35 -78 -123 -168
-203 -207 -76 -37 -199 -45 -312 -20 -312 68 -692 312 -1060 680 -255 255
-437 498 -559 750 -90 184 -118 282 -119 420 -1 99 2 116 25 165 14 30 49 78
79 107 147 144 382 200 666 158z"/>
        <path d="M1080 2185 c0 -2 42 -32 93 -67 224 -150 359 -262 538 -445 195 -199
296 -323 430 -525 86 -130 89 -126 32 32 -39 106 -79 184 -161 310 -202 313
-516 563 -846 674 -84 28 -86 28 -86 21z"/>
        <path d="M1702 2113 c125 -93 341 -309 423 -422 33 -46 70 -95 82 -110 l22
-26 1 30 c0 17 -6 53 -14 80 -47 175 -175 339 -342 440 -64 39 -197 85 -245
85 -27 0 -19 -8 73 -77z"/>
        <path d="M424 2149 c-38 -19 -54 -62 -54 -141 0 -205 140 -483 407 -808 382
-464 948 -852 1248 -854 120 -1 162 47 152 178 -14 187 -149 455 -366 726
-107 133 -385 416 -515 522 -200 164 -419 293 -606 358 -73 26 -231 37 -266
19z m641 -350 c243 -45 620 -391 727 -666 54 -138 48 -207 -22 -287 -52 -58
-82 -69 -170 -63 -141 9 -301 95 -461 245 -230 217 -346 415 -337 578 4 93 37
145 111 180 59 27 71 28 152 13z"/>
        <path d="M1010 1570 c0 -61 107 -232 211 -340 102 -105 305 -240 361 -240 24
0 28 4 28 28 0 33 -65 155 -124 231 -97 125 -265 268 -379 322 -81 38 -97 38
-97 -1z"/>
    </g>
</svg>
