<?xml version="1.0" standalone="no"?>
<!DOCTYPE svg PUBLIC "-//W3C//DTD SVG 20010904//EN"
        "http://www.w3.org/TR/2001/REC-SVG-20010904/DTD/svg10.dtd">
<svg xmlns="http://www.w3.org/2000/svg"
     width="683.000000pt" height="384.000000pt" viewBox="0 0 683.000000 384.000000"
     preserveAspectRatio="xMidYMid meet">
    <rect fill="#74f7de" x="0" y="0" height="384" width="683"/>
    <g transform="translate(0.000000,384.000000) scale(0.100000,-0.100000)"
       fill="#1273a5" stroke="none">
        <path d="M0 1920 l0 -1920 3415 0 3415 0 0 1920 0 1920 -3415 0 -3415 0 0
-1920z m380 1760 c0 -46 3 -60 15 -60 20 0 35 -32 35 -78 0 -24 6 -45 16 -53
13 -11 15 -24 10 -66 l-6 -53 40 0 40 0 0 58 c1 34 6 65 15 76 9 11 15 41 15
68 0 41 3 48 20 48 16 0 19 8 22 58 l3 57 68 3 67 3 0 -61 c0 -33 -4 -60 -9
-60 -24 0 -41 -34 -41 -81 0 -48 -1 -49 -30 -49 -30 0 -30 -1 -30 -55 0 -44
-4 -56 -20 -65 -29 -15 -29 -95 0 -110 16 -9 20 -21 20 -65 0 -54 0 -55 30
-55 27 0 30 -3 30 -34 0 -53 11 -96 25 -96 17 0 25 -23 25 -76 l0 -45 -67 3
-68 3 -3 58 c-3 49 -6 57 -22 57 -17 0 -20 7 -20 48 0 27 -6 57 -15 68 -8 11
-14 41 -15 72 l0 52 -40 0 -39 0 6 -48 c4 -37 2 -51 -11 -61 -10 -8 -16 -29
-16 -53 0 -46 -15 -78 -35 -78 -12 0 -15 -14 -15 -60 l0 -60 -70 0 -70 0 0 55
c0 44 4 57 18 62 26 10 32 23 32 75 0 43 2 47 30 53 29 6 30 9 30 62 0 46 3
56 20 60 17 4 20 14 20 58 0 44 -3 54 -20 58 -17 4 -20 14 -20 61 0 49 -3 56
-19 56 -34 0 -53 29 -49 73 3 32 0 42 -19 54 -19 12 -23 24 -23 62 0 26 3 51
7 54 3 4 35 7 70 7 l63 0 0 -60z m898 -2 c3 -49 6 -57 25 -60 23 -3 34 -31 36
-90 l1 -38 -70 0 -70 0 0 60 0 60 -80 0 -79 0 -3 -57 c-3 -58 -3 -58 -37 -61
l-34 -3 7 -61 c3 -34 6 -112 6 -174 l0 -113 28 -3 c26 -3 27 -6 30 -65 l3 -63
79 0 80 0 0 59 c0 69 8 75 80 65 53 -7 60 -17 60 -86 0 -36 -2 -38 -30 -38
-29 0 -30 -2 -30 -44 0 -79 6 -76 -166 -76 l-154 0 0 60 0 60 -30 0 c-30 0
-30 0 -30 59 0 57 -1 59 -29 64 -36 7 -38 24 -31 222 l5 140 28 3 c26 3 27 5
27 63 l0 59 31 0 c31 0 32 0 26 42 -10 77 -7 79 166 76 l152 -3 3 -57z m532 2
l0 -60 40 0 40 0 0 -60 c0 -53 2 -60 20 -60 19 0 20 -7 20 -185 0 -178 -1
-185 -20 -185 -18 0 -20 -7 -20 -60 l0 -60 -40 0 -40 0 0 -60 0 -60 -125 0
-124 0 -3 58 -3 57 -37 3 -38 3 0 60 c0 45 -3 59 -15 59 -27 0 -35 38 -35 162
0 153 7 199 31 205 14 4 19 17 21 62 l3 56 35 3 c35 3 35 3 32 48 -6 70 2 74
139 74 l119 0 0 -60z m390 1 c0 -50 3 -59 20 -64 16 -4 20 -14 20 -50 0 -24 7
-61 15 -80 8 -20 15 -55 15 -77 0 -22 5 -40 10 -40 6 0 10 24 10 53 1 30 7 60
15 71 9 11 15 41 15 69 0 40 4 50 20 54 16 4 20 15 22 62 l3 56 83 3 82 3 0
-426 0 -426 -67 3 -68 3 -5 292 c-3 160 -8 294 -11 298 -4 3 -9 -43 -11 -102
-4 -73 -11 -118 -22 -138 -12 -22 -16 -57 -16 -132 l0 -103 -49 0 -49 0 -7
113 c-4 61 -12 118 -17 125 -6 7 -13 64 -16 127 -9 219 -22 114 -22 -185 l0
-301 -67 3 -68 3 -3 410 c-1 225 0 416 3 422 3 9 30 13 85 13 l80 0 0 -59z
m2360 -306 l0 -365 48 0 c26 0 53 -5 60 -12 16 -16 16 -80 0 -96 -8 -8 -65
-12 -190 -12 l-178 0 0 60 0 59 58 3 57 3 3 45 c2 25 1 158 -3 297 l-7 252
-42 3 -41 3 -3 63 -3 62 121 0 120 0 0 -365z m590 306 l0 -59 -62 -4 c-40 -3
-66 -1 -70 6 -10 14 -10 100 -1 109 3 4 35 7 70 7 l63 0 0 -59z m-1730 -246
l0 -65 40 0 40 0 0 -54 c0 -45 3 -54 20 -59 17 -4 20 -14 20 -62 0 -48 -3 -58
-20 -62 -17 -5 -20 -14 -20 -64 l0 -59 -40 0 -40 0 0 -60 0 -61 -127 3 -128 3
-3 58 -3 57 -34 0 -35 0 0 58 c0 50 -3 59 -22 67 -18 8 -24 19 -26 57 -3 41 0
49 22 64 22 14 26 24 26 65 l0 49 35 0 34 0 3 57 c4 69 6 71 156 72 l102 1 0
-65z m342 3 c2 -48 7 -63 18 -63 11 0 16 16 20 60 l5 60 127 3 127 3 3 -63 3
-63 38 -3 37 -3 0 -240 0 -239 -70 0 -70 0 0 240 0 240 -91 0 -90 0 6 -44 c6
-40 4 -48 -19 -69 -25 -24 -26 -26 -28 -193 l-3 -169 -65 0 -65 0 -3 294 c-2
229 1 296 10 303 7 4 34 8 60 8 l47 0 3 -62z m1388 -183 l0 -244 57 -3 c55 -3
58 -4 67 -36 6 -22 5 -41 -2 -57 l-12 -25 -185 0 -185 0 0 60 0 60 60 0 60 0
0 180 0 180 -45 0 -45 0 0 65 0 65 115 0 115 0 0 -245z m402 183 c2 -48 7 -63
18 -63 11 0 16 16 20 60 l5 60 128 3 127 3 0 -66 0 -65 40 0 40 0 0 -240 0
-240 -70 0 -70 0 0 240 0 240 -91 0 -91 0 6 -45 c7 -40 4 -47 -20 -70 l-28
-26 -4 -170 -5 -170 -61 3 -61 3 -3 294 c-2 229 1 296 10 303 7 4 34 8 60 8
l47 0 3 -62z m913 33 c3 -16 3 -45 -1 -65 -6 -36 -6 -36 30 -36 l37 0 -3 -117
-3 -118 -157 -3 -158 -3 0 -59 0 -60 118 0 c78 0 122 -4 130 -12 16 -16 16
-80 0 -96 -8 -8 -58 -12 -160 -12 l-147 0 -3 58 -3 57 -37 3 -38 3 0 60 c0 45
-3 59 -15 59 -8 0 -19 9 -25 19 -21 41 -5 111 25 111 11 0 15 13 15 54 l0 55
38 3 c36 3 37 4 34 37 -5 50 5 79 31 84 12 2 81 5 154 6 l131 1 7 -29z m-3685
-900 c0 -4 48 -11 107 -15 59 -4 110 -11 113 -15 3 -4 34 -11 70 -15 36 -4 68
-13 72 -19 10 -17 280 -15 286 1 4 14 282 17 282 3 0 -4 42 -11 92 -15 51 -4
95 -11 98 -15 3 -5 22 -11 43 -15 20 -4 37 -11 37 -15 0 -5 16 -12 35 -15 19
-4 35 -11 35 -16 0 -4 14 -11 30 -15 17 -4 30 -11 30 -16 0 -5 9 -9 20 -9 11
0 23 -7 26 -15 3 -8 16 -17 27 -21 12 -4 32 -17 44 -30 12 -13 26 -24 32 -24
11 0 111 -93 111 -104 0 -4 16 -22 35 -40 19 -19 35 -38 35 -44 0 -5 7 -12 15
-16 8 -3 15 -12 15 -21 0 -8 4 -15 10 -15 5 0 12 -11 16 -25 3 -14 10 -25 15
-25 5 0 9 -7 9 -15 0 -8 4 -15 9 -15 5 0 11 -18 15 -40 3 -22 11 -40 16 -40 5
0 12 -22 16 -50 4 -27 10 -50 15 -50 5 0 9 -18 9 -40 0 -22 5 -40 10 -40 6 0
10 -50 10 -130 0 -80 -4 -130 -10 -130 -5 0 -10 -24 -10 -54 0 -32 -5 -56 -11
-58 -16 -5 -17 -170 -1 -176 7 -2 12 -17 12 -33 0 -16 4 -29 9 -29 6 0 13 -31
17 -70 3 -38 11 -70 15 -70 5 0 9 -27 9 -60 0 -33 4 -60 10 -60 6 0 10 -55 10
-145 0 -90 -4 -145 -10 -145 -5 0 -10 -20 -10 -45 0 -25 -4 -45 -9 -45 -5 0
-12 -20 -15 -45 -4 -25 -11 -45 -17 -45 -5 0 -9 -11 -9 -24 0 -13 -7 -26 -15
-30 -8 -3 -15 -12 -15 -21 0 -8 -4 -15 -9 -15 -5 0 -13 -10 -17 -22 -7 -24
-71 -88 -87 -88 -5 0 -19 -11 -31 -23 -12 -13 -35 -27 -51 -31 -17 -4 -33 -13
-37 -19 -10 -16 -376 -17 -386 -1 -4 6 -31 15 -59 19 -29 4 -53 11 -53 16 0 5
-18 12 -40 15 -22 4 -40 10 -40 15 0 4 -16 11 -35 15 -19 3 -35 10 -35 14 0 5
-13 11 -30 15 -16 4 -30 11 -30 15 0 5 -16 12 -35 16 -19 3 -35 10 -35 15 0 5
-7 9 -15 9 -8 0 -15 4 -15 9 0 5 -11 12 -25 15 -14 4 -25 10 -25 15 0 5 -13
12 -30 16 -16 4 -30 11 -30 16 0 5 -11 11 -25 15 -14 3 -25 10 -25 14 0 5 -10
12 -22 16 -13 4 -33 17 -45 30 -12 13 -29 24 -38 24 -9 0 -18 7 -21 15 -4 8
-12 15 -20 15 -7 0 -27 13 -44 30 -17 16 -37 30 -44 30 -7 0 -22 11 -32 25
-10 14 -24 25 -30 25 -6 0 -35 22 -63 50 -28 28 -56 50 -62 50 -6 0 -29 18
-52 40 -23 22 -83 79 -134 127 -50 49 -103 97 -116 109 -13 11 -28 30 -31 42
-4 12 -11 22 -15 22 -13 0 -91 76 -91 88 0 7 -4 12 -9 12 -5 0 -12 9 -16 19
-3 11 -14 23 -25 26 -10 3 -21 17 -24 30 -3 13 -15 26 -25 30 -10 3 -22 17
-25 30 -4 14 -11 25 -16 25 -6 0 -10 6 -10 14 0 7 -11 22 -25 32 -14 10 -25
25 -25 32 0 7 -7 15 -15 18 -8 3 -17 21 -21 40 -3 19 -14 36 -24 39 -10 3 -21
18 -25 32 -3 15 -15 34 -25 43 -10 9 -22 28 -25 43 -4 15 -11 27 -15 27 -5 0
-11 14 -15 30 -4 17 -11 30 -16 30 -5 0 -9 7 -9 15 0 8 -4 15 -10 15 -5 0 -13
18 -16 40 -4 22 -10 40 -15 40 -5 0 -9 7 -9 15 0 8 -4 15 -9 15 -6 0 -13 20
-17 45 -3 25 -10 45 -15 45 -4 0 -11 32 -15 70 -3 39 -11 70 -15 70 -5 0 -9
36 -9 80 0 44 4 80 9 80 4 0 11 19 14 41 3 23 10 45 15 48 5 3 13 21 17 39 3
17 10 32 15 32 4 0 31 23 60 50 29 28 59 50 66 50 8 0 14 4 14 10 0 5 11 12
25 16 14 3 25 10 25 14 0 5 14 11 30 15 17 4 30 10 30 15 0 4 17 11 37 15 21
4 40 11 43 16 3 5 45 12 93 15 48 4 87 11 87 15 0 5 47 9 105 9 58 0 105 -4
105 -9z"/>
        <path d="M1620 3560 c0 -42 -4 -52 -25 -66 -25 -16 -25 -16 -25 -179 0 -163 0
-163 25 -179 22 -14 25 -24 25 -71 l0 -55 65 0 65 0 0 61 c0 52 3 62 20 66 19
5 20 14 20 178 0 164 -1 173 -20 178 -17 4 -20 14 -20 61 l0 56 -65 0 -65 0 0
-50z"/>
        <path d="M3228 3330 c3 -32 -2 -49 -22 -78 -34 -49 -35 -103 -3 -117 18 -8 22
-19 25 -67 l3 -58 64 0 65 0 0 61 c0 52 3 62 20 66 16 4 20 14 20 52 0 34 -5
51 -20 64 -15 13 -20 29 -20 67 l0 50 -68 0 -68 0 4 -40z"/>
        <path d="M6210 3315 l0 -55 91 0 92 0 -7 38 c-3 20 -6 45 -6 55 0 15 -11 17
-85 17 l-85 0 0 -55z"/>
        <path d="M3660 2305 c0 -13 36 -45 51 -45 9 0 19 -7 23 -15 3 -8 10 -15 16
-15 12 0 32 -15 58 -42 9 -10 20 -18 25 -18 8 0 17 -7 73 -57 19 -18 40 -33
45 -33 11 0 179 -165 179 -177 1 -4 12 -17 26 -28 52 -42 72 -63 78 -83 4 -12
16 -24 27 -27 10 -4 19 -13 19 -20 0 -8 10 -24 23 -37 13 -13 26 -31 30 -41 3
-9 11 -17 17 -17 5 0 10 -7 10 -15 0 -8 7 -15 15 -15 8 0 15 7 15 15 0 8 -4
15 -9 15 -4 0 -11 30 -14 67 -4 37 -11 69 -16 72 -4 3 -12 21 -16 39 -3 17
-11 32 -16 32 -5 0 -9 7 -9 15 0 8 -4 15 -9 15 -5 0 -12 11 -15 25 -4 14 -11
25 -16 25 -6 0 -10 4 -10 10 0 5 -13 23 -30 40 -16 17 -30 37 -30 45 0 8 -4
15 -9 15 -4 0 -25 16 -45 35 -21 19 -42 35 -47 35 -6 0 -20 11 -32 24 -12 13
-32 26 -44 30 -13 4 -23 11 -23 16 0 4 -11 11 -25 14 -14 4 -25 11 -25 16 0 5
-18 13 -40 16 -22 4 -40 10 -40 14 0 5 -22 11 -50 15 -27 4 -50 11 -50 16 0 5
-20 9 -45 9 -25 0 -45 5 -45 10 0 6 -4 10 -10 10 -5 0 -10 -2 -10 -5z"/>
        <path d="M3060 2281 c0 -5 11 -12 25 -15 14 -4 25 -11 25 -16 0 -6 6 -10 14
-10 8 0 21 -6 28 -14 8 -7 24 -17 36 -20 12 -4 22 -12 22 -17 0 -5 7 -9 15 -9
9 0 18 -7 21 -15 4 -8 15 -15 25 -15 11 0 22 -7 25 -15 4 -8 15 -15 25 -15 11
0 22 -7 25 -15 3 -8 16 -17 27 -21 12 -4 32 -17 44 -30 12 -13 28 -24 35 -24
7 0 29 -18 48 -40 19 -22 40 -40 47 -40 7 0 35 -21 63 -47 27 -27 80 -75 116
-108 36 -33 71 -66 77 -73 30 -32 70 -71 121 -117 31 -27 56 -54 56 -58 0 -11
70 -77 81 -77 5 0 9 -7 9 -15 0 -8 14 -28 30 -45 17 -17 30 -33 30 -37 0 -3
11 -16 25 -29 14 -13 25 -26 25 -30 0 -4 11 -17 24 -29 13 -12 27 -32 31 -43
3 -12 11 -22 16 -22 5 0 9 -6 9 -14 0 -8 7 -16 15 -20 8 -3 15 -12 15 -21 0
-8 5 -15 10 -15 6 0 10 -9 10 -19 0 -10 7 -21 15 -25 8 -3 15 -10 15 -16 0 -6
6 -18 14 -26 13 -12 14 -9 9 23 -3 21 -9 40 -13 43 -4 3 -10 22 -14 43 -4 20
-11 37 -16 37 -6 0 -10 9 -10 20 0 11 -4 20 -9 20 -5 0 -12 14 -16 30 -4 17
-11 30 -16 30 -5 0 -9 7 -9 15 0 8 -4 15 -9 15 -5 0 -12 14 -16 30 -4 17 -10
30 -15 30 -4 0 -11 15 -14 34 -4 22 -14 37 -26 41 -10 3 -21 18 -25 34 -3 15
-15 33 -25 41 -11 8 -20 19 -20 25 0 6 -9 18 -20 28 -11 9 -20 24 -20 32 0 8
-4 15 -9 15 -12 0 -61 47 -61 60 0 10 -20 30 -145 145 -36 33 -78 72 -93 86
-15 15 -37 29 -49 33 -12 4 -25 16 -28 27 -4 10 -14 19 -23 19 -10 0 -25 9
-35 20 -9 11 -24 20 -32 20 -8 0 -15 4 -15 9 0 5 -10 13 -22 17 -12 3 -28 13
-36 20 -7 8 -20 14 -28 14 -8 0 -14 4 -14 9 0 5 -13 12 -30 16 -16 4 -30 11
-30 16 0 5 -11 11 -25 15 -14 3 -25 10 -25 14 0 4 -18 10 -40 14 -22 3 -40 10
-40 15 0 5 -18 12 -40 16 -22 4 -40 10 -40 15 0 4 -22 11 -50 15 -27 4 -50 11
-50 16 0 5 -11 9 -25 9 -14 0 -25 -4 -25 -9z"/>
        <path d="M2310 2251 c0 -5 -9 -11 -20 -14 -11 -3 -20 -12 -20 -21 0 -9 -4 -16
-10 -16 -5 0 -10 -18 -10 -40 0 -22 -4 -40 -10 -40 -5 0 -10 -7 -10 -15 0 -8
5 -15 10 -15 6 0 10 -25 10 -55 0 -30 4 -55 9 -55 5 0 11 -22 15 -50 4 -27 11
-50 15 -50 5 0 12 -20 15 -45 4 -25 11 -45 17 -45 5 0 9 -7 9 -15 0 -8 4 -15
10 -15 5 0 12 -16 16 -35 3 -19 10 -35 14 -35 5 0 11 -13 15 -30 3 -16 15 -32
25 -35 10 -3 21 -18 25 -34 3 -15 15 -33 25 -41 11 -8 20 -20 20 -28 0 -7 6
-15 14 -18 8 -3 17 -16 20 -30 4 -13 11 -24 16 -24 6 0 10 -7 10 -15 0 -8 4
-15 10 -15 5 0 12 -11 16 -25 3 -13 14 -27 24 -30 11 -3 22 -15 26 -27 6 -21
51 -68 64 -68 4 0 11 -11 14 -25 4 -14 10 -25 15 -25 13 0 71 -59 71 -71 0 -6
17 -26 38 -45 132 -121 170 -156 232 -216 39 -38 74 -68 79 -68 5 0 30 -20 55
-45 26 -25 51 -45 56 -45 5 0 23 -14 40 -30 17 -17 37 -30 46 -30 8 0 17 -7
20 -15 3 -8 16 -17 27 -21 12 -4 32 -17 44 -30 12 -13 29 -24 38 -24 9 0 18
-7 21 -15 4 -8 12 -15 20 -15 8 0 14 -4 14 -10 0 -5 11 -12 25 -16 14 -3 25
-10 25 -15 0 -5 9 -9 20 -9 11 0 23 -7 26 -15 3 -8 21 -17 40 -21 19 -3 34
-10 34 -14 0 -4 11 -11 25 -14 14 -4 25 -11 25 -16 0 -5 18 -13 40 -16 22 -4
40 -10 40 -14 0 -5 14 -11 30 -15 17 -4 30 -10 30 -15 0 -4 21 -11 48 -15 26
-4 50 -11 53 -16 3 -5 33 -12 67 -15 34 -4 62 -11 62 -15 0 -5 25 -9 55 -9 30
0 55 5 55 10 0 6 11 10 24 10 13 0 40 15 61 35 l37 35 -1 93 c-1 51 -5 93 -11
95 -6 2 -10 17 -10 33 0 16 -4 29 -9 29 -6 0 -13 20 -17 45 -3 25 -10 45 -15
45 -5 0 -9 7 -9 15 0 8 -4 15 -9 15 -5 0 -12 16 -15 35 -4 19 -11 35 -15 35
-5 0 -12 16 -15 35 -4 19 -11 35 -16 35 -6 0 -10 6 -10 14 0 8 -7 16 -15 20
-8 3 -15 12 -15 21 0 8 -4 15 -10 15 -5 0 -10 7 -10 15 0 8 -4 15 -10 15 -5 0
-12 11 -16 24 -3 14 -12 27 -20 30 -8 3 -14 11 -14 17 0 6 -8 19 -19 28 -10 9
-21 26 -25 39 -4 12 -12 22 -17 22 -5 0 -9 6 -9 13 -1 6 -14 23 -30 37 -17 13
-30 28 -30 33 0 4 -16 23 -35 41 -19 19 -35 36 -35 40 0 9 -81 86 -91 86 -5 0
-9 8 -9 18 0 9 -25 40 -55 67 -116 105 -221 204 -252 237 -21 23 -42 38 -51
38 -5 0 -33 23 -61 50 -28 28 -56 50 -62 50 -6 0 -24 14 -41 30 -16 17 -36 30
-44 30 -8 0 -14 4 -14 9 0 5 -10 13 -22 17 -13 4 -33 17 -45 30 -12 13 -27 24
-33 24 -5 0 -10 4 -10 9 0 5 -10 13 -22 17 -12 3 -28 13 -36 20 -7 8 -20 14
-28 14 -8 0 -14 4 -14 10 0 5 -15 12 -34 16 -19 3 -37 12 -40 20 -3 8 -12 14
-21 14 -8 0 -15 4 -15 9 0 5 -16 12 -35 15 -19 4 -35 11 -35 16 0 6 -18 13
-40 16 -22 4 -40 10 -40 15 0 5 -18 12 -40 15 -22 4 -40 10 -40 15 0 4 -27 11
-60 15 -33 4 -60 11 -60 15 0 5 -47 9 -105 9 -58 0 -105 -4 -105 -9z m750
-380 c0 -5 23 -11 50 -15 28 -4 50 -11 50 -16 0 -4 14 -11 30 -15 17 -4 30
-11 30 -15 0 -5 16 -12 35 -16 19 -3 35 -10 35 -14 0 -4 11 -11 25 -14 14 -4
25 -11 25 -16 0 -6 6 -10 14 -10 7 0 22 -11 32 -25 10 -14 24 -25 31 -25 7 0
33 -20 59 -45 25 -25 51 -45 57 -45 7 0 20 -8 29 -17 9 -10 27 -27 41 -39 13
-11 28 -30 31 -42 4 -12 11 -22 15 -22 14 0 78 -66 85 -87 4 -12 13 -24 21
-27 8 -3 15 -11 15 -18 0 -8 9 -20 20 -28 10 -8 22 -26 25 -41 4 -15 13 -30
21 -33 8 -3 14 -12 14 -21 0 -8 5 -15 10 -15 6 0 10 -11 10 -24 0 -13 5 -26
11 -28 5 -2 13 -22 16 -46 3 -23 10 -42 14 -42 5 0 9 -13 9 -30 0 -16 5 -30
10 -30 6 0 10 -11 10 -25 0 -14 -4 -25 -10 -25 -5 0 -10 -9 -10 -20 0 -11 -4
-20 -9 -20 -5 0 -12 -11 -15 -25 -8 -32 -87 -115 -110 -115 -9 0 -16 -4 -16
-10 0 -6 -33 -10 -80 -10 -44 0 -80 4 -80 9 0 5 -25 12 -55 16 -30 3 -55 10
-55 15 0 5 -16 12 -35 16 -19 3 -35 10 -35 15 0 5 -7 9 -15 9 -8 0 -15 4 -15
9 0 5 -13 12 -30 16 -16 4 -30 10 -30 15 0 5 -10 12 -22 16 -20 6 -31 13 -63
42 -7 6 -17 12 -22 12 -5 0 -16 8 -25 18 -26 26 -46 42 -57 42 -16 0 -151 139
-151 155 0 8 -4 15 -9 15 -10 0 -61 46 -61 56 0 4 -11 17 -24 29 -13 12 -27
32 -31 43 -3 12 -11 22 -16 22 -5 0 -9 7 -9 15 0 8 -4 15 -9 15 -5 0 -12 12
-16 27 -3 15 -14 34 -24 42 -10 9 -21 29 -25 46 -4 16 -13 33 -19 37 -17 11
-17 240 1 245 6 3 12 9 12 15 0 20 83 88 107 88 12 0 23 5 23 10 0 6 33 10 80
10 44 0 80 -4 80 -9z"/>
        <path d="M2980 1620 c0 -16 4 -30 9 -30 5 0 11 -18 15 -39 3 -21 13 -41 21
-45 8 -3 15 -12 15 -21 0 -8 5 -15 10 -15 6 0 10 -7 10 -15 0 -8 4 -15 9 -15
5 0 13 -10 17 -22 4 -13 22 -37 40 -55 19 -17 34 -35 34 -38 0 -4 26 -31 58
-61 31 -29 68 -64 83 -77 14 -14 35 -27 47 -31 11 -4 24 -16 27 -27 4 -10 15
-19 26 -19 11 0 22 -7 25 -15 4 -8 15 -15 25 -15 11 0 22 -7 25 -15 3 -8 21
-17 40 -21 19 -3 34 -10 34 -14 0 -5 14 -11 30 -15 17 -4 30 -11 30 -16 0 -5
16 -9 35 -9 32 0 35 2 35 30 0 17 -4 30 -10 30 -5 0 -10 7 -10 15 0 8 -4 15
-10 15 -5 0 -12 16 -16 35 -3 19 -10 35 -14 35 -5 0 -11 13 -15 30 -4 16 -15
32 -26 35 -10 4 -22 17 -25 31 -3 13 -10 24 -14 24 -13 0 -58 47 -65 68 -3 12
-10 22 -15 22 -5 0 -33 25 -64 55 -30 30 -59 55 -64 55 -5 0 -26 16 -46 35
-21 19 -43 35 -51 35 -7 0 -15 7 -19 15 -3 8 -14 15 -25 15 -10 0 -21 7 -25
15 -3 8 -15 15 -26 15 -11 0 -20 4 -20 9 0 5 -13 12 -30 16 -16 4 -30 11 -30
16 0 5 -18 9 -40 9 -38 0 -40 -2 -40 -30z"/>
    </g>
</svg>
